<svg xmlns="http://www.w3.org/2000/svg" viewBox="0 0 512 512">
  <defs>
    <linearGradient id="g" x1="0" y1="0" x2="1" y2="1">
      <stop offset="0" stop-color="#2563eb"/>
      <stop offset="1" stop-color="#7c3aed"/>
    </linearGradient>
  </defs>
  <rect width="512" height="512" rx="112" fill="url(#g)"/>
  <path fill="#fff" d="M128 160c0-35.3 28.7-64 64-64h128c35.3 0 64 28.7 64 64v96c0 35.3-28.7 64-64 64h-70.1l-70.6 56.5c-10.5 8.4-26.3.9-26.3-12.5v-44h-24c-35.3 0-64-28.7-64-64v-96zm80 36a28 28 0 1 0 0 56 28 28 0 0 0 0-56zm96 28a28 28 0 1 0-56 0 28 28 0 0 0 56 0zm68 0a28 28 0 1 0-56 0 28 28 0 0 0 56 0z"/>
</svg>
